<svg width="132" height="23" viewBox="0 0 132 23" fill="none" xmlns="http://www.w3.org/2000/svg">
<g id="Group">
<path id="Vector" d="M16.1793 17.456L15.0321 16.874C14.8098 16.7431 14.523 16.8449 14.394 17.0704C12.6803 20.002 8.92324 20.9695 6.03372 19.2018C3.1442 17.3978 2.21927 13.6224 3.9329 10.6908C5.64654 7.75921 9.40362 6.7917 12.2931 8.55938C12.5441 8.71942 12.8022 8.87947 13.0245 9.07588C13.2181 9.23591 13.5049 9.20681 13.6626 9.04677L14.5517 8.10837C14.7453 7.91196 14.7094 7.59189 14.523 7.43186C14.523 7.43186 14.523 7.43185 14.4943 7.40275C10.9667 4.43481 5.71823 4.9222 2.79287 8.50119C-0.132502 12.0802 0.347891 17.405 3.87554 20.373C7.40319 23.3409 12.6516 22.8536 15.577 19.2746C15.8638 18.9181 16.1148 18.5326 16.3729 18.147C16.5019 17.9215 16.4374 17.6305 16.2151 17.4705L16.1793 17.456Z" fill="#191919"/>
<path id="Vector_2" d="M3.24382 5.48966C4.10422 5.16959 4.51291 4.23119 4.22611 3.39464C3.93931 2.55808 2.9857 2.10707 2.16115 2.39805C1.30075 2.71812 0.892053 3.65652 1.17885 4.49308C1.49433 5.35873 2.4121 5.78064 3.24382 5.48966Z" fill="#191919"/>
<path id="Vector_3" d="M8.64421 3.5257C9.50461 3.20563 9.9133 2.26723 9.6265 1.43067C9.31102 0.557745 8.38609 0.143109 7.56154 0.434084C6.70114 0.754158 6.29244 1.69256 6.57924 2.52911C6.86604 3.36567 7.79098 3.81667 8.64421 3.5257Z" fill="#191919"/>
<path id="Vector_4" d="M20.7617 11.9719C20.5681 11.7755 20.2884 11.7755 20.0949 11.9719L19.3635 12.6484L17.5495 9.455C17.2627 8.96761 16.6604 8.77848 16.1513 9.06946C15.9577 9.16402 15.8359 9.32406 15.7355 9.52046L14.3373 12.5539L13.0969 10.939C12.7814 10.5171 12.2078 10.4225 11.7633 10.6844C11.5697 10.8153 11.412 10.9753 11.3474 11.1717L9.4402 15.3327C9.34699 15.5873 9.4402 15.8492 9.66247 15.9801L10.6448 16.4311C10.867 16.5621 11.1538 16.4311 11.2829 16.2056L12.4875 13.5577L13.692 15.1727C13.9788 15.5291 14.4234 15.66 14.8392 15.4927C15.0902 15.3982 15.3196 15.2018 15.4128 14.9472L16.6819 12.2047L18.1733 14.7871C18.2665 14.9835 18.4242 15.1436 18.6178 15.2381C18.9978 15.4346 19.4424 15.3691 19.765 15.0417L21.45 13.4268C21.6436 13.2304 21.6436 12.9394 21.4787 12.7503L20.7617 11.9719Z" fill="#191919"/>
<path id="Vector_5" d="M37.0902 9.6945C38.2661 9.62903 39.3774 10.2764 39.9797 11.3094C40.0442 11.4404 40.1733 11.5058 40.2952 11.5058H42.4247C42.6183 11.5058 42.776 11.3458 42.776 11.1494C42.776 11.0839 42.776 11.0548 42.7473 11.0184C41.7937 8.76338 39.6929 7.43945 37.1189 7.43945C33.5267 7.43945 30.7949 10.0873 30.7949 13.8554C30.7949 17.6309 33.498 20.3078 37.0902 20.3078C39.6642 20.3078 41.7937 19.0494 42.7473 16.7579C42.8119 16.5615 42.7473 16.336 42.5538 16.2705C42.5251 16.2415 42.4605 16.2414 42.4247 16.2414H40.2952C40.1661 16.2414 40.0442 16.3069 39.9797 16.4379C39.4061 17.4999 38.2661 18.1183 37.0902 18.0528C34.932 18.0528 33.369 16.4088 33.369 13.8627C33.369 11.3094 34.9249 9.6945 37.0902 9.6945Z" fill="#191919"/>
<path id="Vector_6" d="M46.0996 10.2324H44.3214C44.1278 10.2324 43.9701 10.3925 43.9701 10.5889L43.9414 19.8419C43.9414 20.0383 44.0992 20.1983 44.2927 20.1983H46.0709C46.2645 20.1983 46.4222 20.0383 46.4222 19.8419L46.4509 10.5889C46.4437 10.3925 46.286 10.2324 46.0996 10.2324Z" fill="#191919"/>
<path id="Vector_7" d="M45.1907 6.07163C45.162 6.04253 45.1262 6.04253 45.1262 6.07163C44.3303 6.10073 43.6922 6.81362 43.728 7.62108C43.7639 8.42853 44.4593 9.07594 45.2552 9.03957C46.0511 9.01047 46.6534 8.36304 46.6534 7.55559C46.6534 6.74813 46.0224 6.07163 45.1907 6.07163Z" fill="#191919"/>
<path id="Vector_8" d="M53.3674 10.1025C52.2848 10.1971 51.3025 10.8154 50.7289 11.7829V10.5899C50.7289 10.3935 50.5711 10.2335 50.3775 10.2335H48.6281C48.4345 10.2335 48.2767 10.3935 48.2767 10.5899L48.248 19.843C48.248 20.0394 48.4058 20.1994 48.5994 20.1994H50.3775C50.5711 20.1994 50.7289 20.0394 50.7289 19.843L50.7576 15.231C50.7576 13.296 51.6466 12.7141 53.1452 12.7141H53.432C53.6256 12.7141 53.7833 12.554 53.7833 12.3576C53.7833 11.8411 53.7833 10.9682 53.7833 10.4517C53.7474 10.299 53.5897 10.1025 53.3674 10.1025Z" fill="#191919"/>
<path id="Vector_9" d="M59.3137 12.1171C60.1383 12.0516 60.9055 12.539 61.221 13.3101C61.2855 13.441 61.4146 13.5065 61.5365 13.5065H63.4724C63.6659 13.5065 63.8524 13.3465 63.8524 13.1209C63.8524 13.0919 63.8524 13.0555 63.8237 13.0264C63.1855 11.0914 61.601 9.96387 59.3424 9.96387C56.4816 9.96387 54.4453 11.9643 54.4453 15.1214C54.4453 18.2785 56.4457 20.2789 59.3066 20.3153C61.5651 20.3153 63.1497 19.1223 63.8237 17.2819C63.8882 17.0855 63.795 16.86 63.6014 16.7945C63.5727 16.7945 63.5369 16.7654 63.4724 16.7654H61.5365C61.3787 16.7654 61.2496 16.86 61.1851 16.9909C60.8338 17.762 60.2315 18.1548 59.2779 18.1548C57.8797 18.1548 56.9548 17.0928 56.9907 15.1578C57.0265 13.2082 57.9156 12.1171 59.3137 12.1171Z" fill="#191919"/>
<path id="Vector_10" d="M74.1274 10.2107H72.3492C72.1556 10.2107 71.9979 10.3708 71.9979 10.5672V15.6956C71.9979 17.3105 71.1375 18.1762 69.7752 18.1762C68.4128 18.1762 67.5811 17.3033 67.5811 15.6956L67.6098 10.5672C67.6098 10.3708 67.4521 10.2107 67.2585 10.1816H65.4445C65.2509 10.1816 65.0931 10.3417 65.0931 10.5381L65.0645 16.0521C65.0645 18.7945 66.7207 20.3076 69.008 20.3076C70.1552 20.3367 71.2307 19.8202 71.9333 18.9182V19.8202C71.9333 20.0166 72.0911 20.1766 72.2847 20.1766H74.0628C74.2564 20.1766 74.4142 20.0166 74.4142 19.8202L74.4428 10.5672C74.4787 10.3999 74.321 10.2398 74.1274 10.2107Z" fill="#191919"/>
<path id="Vector_11" d="M78.6152 10.2324H76.837C76.6435 10.2324 76.4857 10.3925 76.4857 10.5889L76.457 19.8419C76.457 20.0674 76.6148 20.2274 76.8084 20.1983H78.5865C78.7801 20.1983 78.9378 20.0383 78.9378 19.8419L78.9665 10.5889C78.9665 10.3925 78.8088 10.2324 78.6152 10.2324Z" fill="#191919"/>
<path id="Vector_12" d="M77.7122 6.0498C77.6835 6.0498 77.6835 6.0498 77.6476 6.0498C76.8518 6.0789 76.2136 6.7918 76.2495 7.59925C76.2782 8.40671 76.9808 9.05412 77.7767 9.01774C78.5726 8.98865 79.1749 8.34122 79.1749 7.53376C79.1749 6.72631 78.5367 6.0498 77.7122 6.0498Z" fill="#191919"/>
<path id="Vector_13" d="M86.1504 18.206H85.3259C84.53 18.206 84.2791 17.915 84.2791 17.2385V12.561C84.2791 12.4665 84.3436 12.401 84.4368 12.401H86.1218C86.3153 12.401 86.4731 12.2409 86.4731 12.0154V10.6915C86.5018 10.4951 86.344 10.3351 86.1576 10.3351H84.4727C84.3794 10.3351 84.3149 10.2696 84.3149 10.175V8.24003C84.3149 8.04363 84.1572 7.88359 83.9636 7.85449H82.1854C81.9918 7.85449 81.8341 8.01454 81.8341 8.21095V10.1459C81.8341 10.2405 81.7696 10.306 81.6763 10.306H81.0095C80.8159 10.306 80.6582 10.466 80.6582 10.6624V12.0154C80.6582 12.2119 80.8159 12.3719 81.0095 12.3719H81.6477C81.7409 12.3719 81.8054 12.4374 81.8054 12.5319V17.173C81.8054 19.4644 83.0458 20.301 84.953 20.301H86.1576C86.3512 20.301 86.5089 20.1409 86.5089 19.9445V18.5551C86.4946 18.3733 86.3369 18.206 86.1504 18.206Z" fill="#191919"/>
<path id="Vector_14" d="M101.69 7.60065H99.4669C99.3091 7.60065 99.18 7.69521 99.1155 7.82615L95.3943 16.5991C95.3656 16.6936 95.2652 16.73 95.172 16.6936C95.1433 16.6645 95.1075 16.6645 95.0788 16.5991L91.4221 7.76066C91.3576 7.62972 91.2285 7.53516 91.1066 7.53516H88.8839C88.6903 7.53516 88.5326 7.69521 88.5326 7.89162L88.5039 19.7634C88.5039 19.9598 88.6616 20.1199 88.8552 20.149H90.6334C90.827 20.149 90.9847 19.9889 90.9847 19.7925L91.0134 12.7582C91.0134 12.6636 91.0779 12.5981 91.1425 12.5618C91.2357 12.5618 91.3002 12.5909 91.3361 12.6927L94.2614 19.9162C94.326 20.0471 94.455 20.1417 94.5769 20.1417H95.9751C96.1328 20.1417 96.2619 20.0471 96.3264 19.9162L99.2804 12.7218C99.3091 12.6272 99.3736 12.5618 99.474 12.5909C99.5672 12.62 99.6318 12.6854 99.6031 12.7873L99.5744 19.8216C99.5744 20.018 99.7321 20.1781 99.9257 20.2071H101.675C101.869 20.2071 102.027 20.0471 102.027 19.8507L102.055 7.97891C102.041 7.76067 101.883 7.60065 101.69 7.60065Z" fill="#191919"/>
<path id="Vector_15" d="M108.057 9.94922C105.132 9.94922 103.096 11.9497 103.096 15.1068C103.096 18.2638 105.161 20.2643 108.021 20.3007C110.244 20.3007 111.807 19.1077 112.474 17.5291C112.539 17.3327 112.474 17.1436 112.28 17.0417C112.252 17.0126 112.187 17.0126 112.151 17.0126H110.216C110.086 17.0126 109.965 17.0781 109.9 17.1727C109.52 17.8492 108.789 18.2711 108.021 18.2057C106.781 18.2057 105.799 17.3691 105.67 15.8851L112.567 15.9142C112.761 15.9142 112.919 15.7833 112.919 15.5941C112.947 15.3686 112.947 15.1722 112.947 14.9467C112.89 11.9206 110.882 9.94922 108.057 9.94922ZM110.151 14.1756H105.634C105.827 12.8226 106.781 12.0151 107.986 12.0442C109.19 12.0733 110.208 12.8153 110.309 14.0447C110.316 14.1102 110.251 14.1756 110.151 14.1756Z" fill="#191919"/>
<path id="Vector_16" d="M116.631 12.859C116.631 12.277 117.112 11.8915 118.029 11.9206C118.89 11.9206 119.463 12.3425 119.621 12.9535C119.65 13.1136 119.815 13.2445 119.973 13.2445H121.657C121.851 13.2445 122.038 13.0845 122.038 12.8881C122.038 12.859 122.038 12.859 122.038 12.8226C121.722 11.084 120.324 9.94922 118.13 9.94922C115.685 9.94922 114.222 11.2732 114.222 12.9463C114.222 16.6198 119.786 15.4923 119.786 17.2673C119.786 17.8492 119.248 18.3002 118.259 18.3002C117.37 18.3002 116.732 17.8492 116.545 17.2382C116.517 17.0781 116.352 16.9836 116.194 16.9836H114.416C114.222 16.9836 114.064 17.1436 114.064 17.34C114.064 17.3691 114.064 17.3691 114.064 17.4055C114.38 19.0495 116.036 20.3079 118.323 20.3079C120.74 20.3079 122.202 19.0204 122.202 17.3109C122.102 13.5355 116.631 14.663 116.631 12.859Z" fill="#191919"/>
<path id="Vector_17" d="M125.67 12.9543C125.67 12.3723 126.151 11.9868 127.069 11.9868C127.929 11.9868 128.503 12.4087 128.66 13.0197C128.689 13.1798 128.854 13.3107 129.012 13.3107H130.697C130.89 13.3107 131.077 13.1507 131.077 12.9252C131.077 12.8961 131.077 12.8961 131.077 12.8597C130.761 11.1211 129.363 9.98633 127.169 9.98633C124.724 9.98633 123.261 11.3103 123.261 12.9543C123.261 16.6278 128.825 15.5003 128.825 17.2753C128.825 17.8572 128.288 18.3082 127.298 18.3082C126.409 18.3082 125.771 17.8572 125.584 17.2462C125.556 17.0861 125.391 16.9915 125.233 16.9915H123.419C123.225 16.9915 123.068 17.1516 123.039 17.348C123.039 17.3771 123.039 17.3771 123.039 17.4135C123.355 19.0575 125.011 20.3159 127.298 20.3159C129.714 20.3159 131.177 19.0284 131.177 17.3189C131.134 13.6599 125.67 14.7947 125.67 12.9543Z" fill="#191919"/>
</g>
</svg>
